<svg data-v-5f19e91b="" xmlns="http://www.w3.org/2000/svg" width="523.1441860465117" height="60" viewBox="0 0 523.1441860465117 60"><!----> <!----> <!----> <g data-v-5f19e91b="" id="c10a4d83-d691-40cd-fe57-b0b6cbfd5dfc" fill="black" transform="matrix(4.762790679931641,0,0,4.762790679931641,-5.525590896606445,-0.6697673201560974)"><path d="M5.27 2.10L1.16 2.10L1.16 12.60L2.87 12.60L2.87 8.14L5.27 8.14C6.97 8.14 8.29 6.84 8.29 5.15C8.29 3.46 6.97 2.10 5.27 2.10ZM5.02 6.65L2.87 6.65L2.87 3.66L5.02 3.66C5.93 3.66 6.62 4.25 6.62 5.16C6.62 6.09 5.93 6.65 5.02 6.65ZM17.26 11.24C16.92 11.24 16.61 11.06 16.61 10.45L16.61 5.60L14.95 5.60L14.95 6.34C14.35 5.79 13.58 5.46 12.69 5.46C10.71 5.46 9.14 7.07 9.14 9.10C9.14 11.13 10.71 12.74 12.69 12.74C13.70 12.74 14.60 12.29 15.19 11.57C15.54 12.27 16.22 12.74 17.08 12.74C17.29 12.74 17.48 12.69 17.64 12.60L17.64 11.24ZM12.90 11.20C11.73 11.20 10.80 10.27 10.80 9.10C10.80 7.93 11.73 7.00 12.90 7.00C14.05 7.00 15.00 7.93 15.00 9.10C15.00 10.27 14.05 11.20 12.90 11.20ZM21.02 12.74C22.42 12.74 23.42 11.85 23.42 10.59C23.42 9.26 22.30 8.73 21.35 8.35C20.67 8.07 20.34 7.93 20.34 7.49C20.34 7.09 20.62 6.86 21.09 6.86C21.54 6.86 21.95 7.07 22.14 7.39L23.19 6.53C22.82 5.93 21.93 5.46 20.98 5.46C19.67 5.46 18.69 6.35 18.69 7.58C18.69 8.82 19.72 9.35 20.77 9.73C21.51 10.03 21.84 10.22 21.84 10.62C21.84 11.06 21.46 11.31 20.97 11.31C20.46 11.31 19.90 11.06 19.69 10.52L18.34 11.13C18.67 12.09 19.85 12.74 21.02 12.74ZM28.70 7.00L28.70 5.60L26.93 5.60L26.93 2.73L25.27 2.73L25.27 5.60L24.12 5.60L24.12 7.00L25.27 7.00L25.27 10.43C25.27 11.73 26.37 12.74 27.65 12.74C28.05 12.74 28.49 12.64 28.66 12.51L28.66 11.24L27.86 11.24C27.34 11.24 26.93 10.85 26.93 10.24L26.93 7.00ZM33.58 12.74C35.75 12.74 37.34 11.15 37.34 9.10C37.34 7.05 35.75 5.46 33.58 5.46C31.41 5.46 29.82 7.05 29.82 9.10C29.82 11.15 31.41 12.74 33.58 12.74ZM33.58 11.20C32.39 11.20 31.48 10.27 31.48 9.10C31.48 7.93 32.39 7.00 33.58 7.00C34.76 7.00 35.68 7.93 35.68 9.10C35.68 10.27 34.76 11.20 33.58 11.20ZM42.98 5.46C42.07 5.46 41.32 5.88 40.83 6.56L40.83 5.60L39.17 5.60L39.17 12.60L40.83 12.60L40.83 9.05C40.83 7.82 41.74 7.00 42.95 7.00C43.17 7.00 43.37 7.04 43.54 7.07L43.54 5.51C43.37 5.48 43.17 5.46 42.98 5.46ZM54.22 2.10L48.95 2.10L48.95 3.69L52.50 3.69L52.50 9.78C52.50 10.61 51.96 11.17 51.22 11.17C50.56 11.17 50.05 10.69 49.98 9.98L48.27 10.43C48.46 11.87 49.53 12.74 51.22 12.74C53.10 12.74 54.22 11.69 54.22 9.99ZM63.26 9.07C63.23 6.97 61.69 5.46 59.57 5.46C57.44 5.46 55.83 7.00 55.83 9.10C55.83 11.20 57.42 12.74 59.59 12.74C61.39 12.74 62.74 11.67 63.14 10.15L61.48 10.15C61.18 10.89 60.48 11.36 59.59 11.36C58.42 11.36 57.59 10.54 57.51 9.36L63.25 9.36ZM59.59 6.86C60.50 6.86 61.15 7.37 61.44 8.17L57.65 8.17C57.96 7.39 58.64 6.86 59.59 6.86ZM68.85 5.46C67.94 5.46 67.18 5.88 66.69 6.56L66.69 5.60L65.03 5.60L65.03 12.60L66.69 12.60L66.69 9.05C66.69 7.82 67.60 7.00 68.81 7.00C69.04 7.00 69.23 7.04 69.41 7.07L69.41 5.51C69.23 5.48 69.04 5.46 68.85 5.46ZM77.53 9.07C77.49 6.97 75.95 5.46 73.83 5.46C71.70 5.46 70.09 7.00 70.09 9.10C70.09 11.20 71.68 12.74 73.85 12.74C75.65 12.74 77.00 11.67 77.40 10.15L75.74 10.15C75.44 10.89 74.74 11.36 73.85 11.36C72.68 11.36 71.86 10.54 71.77 9.36L77.51 9.36ZM73.85 6.86C74.76 6.86 75.41 7.37 75.71 8.17L71.91 8.17C72.22 7.39 72.91 6.86 73.85 6.86ZM86.77 5.46C85.86 5.46 85.10 5.88 84.65 6.56C84.19 5.90 83.48 5.46 82.69 5.46C81.99 5.46 81.39 5.79 80.96 6.32L80.96 5.60L79.29 5.60L79.29 12.60L80.96 12.60L80.96 8.33C80.96 7.65 81.45 7.00 82.20 7.00C82.92 7.00 83.46 7.60 83.46 8.33L83.46 12.60L85.12 12.60L85.12 8.33C85.12 7.65 85.61 7.00 86.36 7.00C87.08 7.00 87.62 7.60 87.62 8.33L87.62 12.60L89.29 12.60L89.29 8.16C89.29 6.62 88.25 5.46 86.77 5.46ZM92.38 4.36C92.93 4.36 93.38 3.90 93.38 3.38C93.38 2.82 92.93 2.38 92.38 2.38C91.84 2.38 91.39 2.82 91.39 3.38C91.39 3.90 91.84 4.36 92.38 4.36ZM91.56 12.60L93.21 12.60L93.21 5.60L91.56 5.60ZM103.23 11.24C102.90 11.24 102.59 11.06 102.59 10.45L102.59 5.60L100.92 5.60L100.92 6.34C100.33 5.79 99.56 5.46 98.67 5.46C96.69 5.46 95.11 7.07 95.11 9.10C95.11 11.13 96.69 12.74 98.67 12.74C99.68 12.74 100.57 12.29 101.17 11.57C101.52 12.27 102.20 12.74 103.06 12.74C103.27 12.74 103.46 12.69 103.62 12.60L103.62 11.24ZM98.88 11.20C97.70 11.20 96.78 10.27 96.78 9.10C96.78 7.93 97.70 7.00 98.88 7.00C100.03 7.00 100.98 7.93 100.98 9.10C100.98 10.27 100.03 11.20 98.88 11.20ZM108.40 5.46C107.75 5.46 107.15 5.71 106.68 6.11L106.68 0.14L105.02 0.14L105.02 12.60L106.68 12.60L106.68 8.38C106.68 7.63 107.28 7.00 108.03 7.00C108.76 7.00 109.34 7.58 109.34 8.31L109.34 12.60L111.00 12.60L111.00 8.16C111.00 6.63 109.85 5.46 108.40 5.46Z"></path></g> <!----></svg>